<?xml version="1.0" encoding="UTF-8" standalone="no"?>
<!-- Created with Inkscape (http://www.inkscape.org/) -->
<svg
   xmlns:svg="http://www.w3.org/2000/svg"
   xmlns="http://www.w3.org/2000/svg"
   version="1.0"
   width="40"
   height="42"
   id="svg6739">
  <defs
     id="defs6741" />
  <g
     transform="translate(-331.42856,-551.36218)"
     id="layer1">
    <path
       d="M 18.09375,7.03125 L 18.09375,26.25 C 18.09374,28.65712 17.804441,30.23596 17.25,31 C 16.69555,31.76406 15.74502,32.156258 14.40625,32.15625 C 13.08098,32.15626 12.0866,31.59958 11.4375,30.53125 C 11.00476,29.82806 10.75511,28.641411 10.6875,26.9375 L 5.03125,27.5625 C 5.04478,30.74042 5.8553002,33.169451 7.4375,34.8125 C 9.01969,36.45556 11.28424,37.281251 14.21875,37.28125 C 16.72051,37.28125 18.72188,36.735529 20.25,35.6875 C 21.77809,34.63946 22.82474,33.2622 23.40625,31.53125 C 23.83897,30.20599 24.062479,28.304959 24.0625,25.84375 L 24.0625,23.8125 L 25.34375,21.9375 L 30.71875,35.09375 L 35.84375,35.09375 L 28.0625,17.96875 L 35.4375,7.03125 L 30.125,7.03125 L 24.0625,16.46875 L 24.0625,7.03125 L 22.125,7.03125 L 18.1875,7.03125 L 18.09375,7.03125 z "
       transform="translate(331.42856,551.36218)"
       style="font-size:41.54290009px;font-style:normal;font-weight:bold;text-align:center;text-anchor:middle;fill:#000000;fill-opacity:1;stroke:none;stroke-width:1px;stroke-linecap:butt;stroke-linejoin:miter;stroke-opacity:1;font-family:Arial"
       id="text6757" />
  </g>
</svg>
